<svg xmlns="http://www.w3.org/2000/svg" width="186.3" height="149.046" viewBox="0 0 186.3 149.046">
  <g id="Group_11905" data-name="Group 11905" transform="translate(-1056.347 -196)">
    <g id="Speech_Bubbles" data-name="Speech Bubbles" transform="translate(1059.774 227.326)">
      <g id="Group_56" data-name="Group 56" transform="translate(52.095)">
        <path id="Path_37" data-name="Path 37" d="M310.72,154.092H194.51a4.545,4.545,0,0,0-4.545,4.545v36.047a4.545,4.545,0,0,0,4.545,4.545h8.657c.7,3.764,1.513,8.514,1.513,8.514l7.836-8.514h98.2a4.545,4.545,0,0,0,4.544-4.545V158.637A4.544,4.544,0,0,0,310.72,154.092Z" transform="translate(-189.965 -154.092)" fill="#f47d31"/>
        <g id="Group_55" data-name="Group 55" transform="translate(11.027 13.878)">
          <g id="Group_51" data-name="Group 51" transform="translate(0 5.541)">
            <path id="Path_38" data-name="Path 38" d="M273.139,191.9c0,.074-13.831.134-30.889.134s-30.892-.06-30.892-.134,13.829-.134,30.892-.134S273.139,191.825,273.139,191.9Z" transform="translate(-211.358 -191.765)" fill="#f5f5f5" stroke="#fff" stroke-width="0.5"/>
          </g>
          <g id="Group_52" data-name="Group 52">
            <path id="Path_39" data-name="Path 39" d="M273.139,181.15c0,.074-13.831.134-30.889.134s-30.892-.06-30.892-.134,13.829-.135,30.892-.135S273.139,181.075,273.139,181.15Z" transform="translate(-211.358 -181.015)" fill="#f5f5f5" stroke="#fff" stroke-width="0.5"/>
          </g>
          <g id="Group_53" data-name="Group 53" transform="translate(0 11.021)">
            <path id="Path_40" data-name="Path 40" d="M273.139,202.53c0,.074-13.831.135-30.889.135s-30.892-.06-30.892-.135,13.829-.134,30.892-.134S273.139,202.456,273.139,202.53Z" transform="translate(-211.358 -202.396)" fill="#f5f5f5" stroke="#fff" stroke-width="0.5"/>
          </g>
          <g id="Group_54" data-name="Group 54" transform="translate(0 16.698)">
            <path id="Path_41" data-name="Path 41" d="M251.826,213.542c0,.074-9.059.135-20.233.135s-20.235-.06-20.235-.135,9.058-.134,20.235-.134S251.826,213.468,251.826,213.542Z" transform="translate(-211.358 -213.408)" fill="#f5f5f5" stroke="#fff" stroke-width="0.5"/>
          </g>
        </g>
      </g>
      <g id="Group_62" data-name="Group 62" transform="translate(0 64.807)">
        <path id="Path_42" data-name="Path 42" d="M209.245,279.816H92.081A3.179,3.179,0,0,0,88.9,283v38.137a3.18,3.18,0,0,0,3.179,3.18h85.093l7.746,8.416s.813-4.731,1.5-8.416h22.828a3.18,3.18,0,0,0,3.179-3.18V283A3.179,3.179,0,0,0,209.245,279.816Z" transform="translate(-88.902 -279.816)" fill="#241f7f"/>
        <g id="Group_61" data-name="Group 61" transform="translate(53.966 13.991)">
          <g id="Group_57" data-name="Group 57" transform="translate(0 5.541)">
            <path id="Path_43" data-name="Path 43" d="M255.376,317.842c0,.074-13.832.134-30.889.134s-30.892-.06-30.892-.134,13.828-.134,30.892-.134S255.376,317.768,255.376,317.842Z" transform="translate(-193.595 -317.708)" fill="#fff" stroke="#fff" stroke-width="0.5"/>
          </g>
          <g id="Group_58" data-name="Group 58">
            <path id="Path_44" data-name="Path 44" d="M255.376,307.093c0,.074-13.832.134-30.889.134s-30.892-.06-30.892-.134,13.828-.135,30.892-.135S255.376,307.018,255.376,307.093Z" transform="translate(-193.595 -306.958)" fill="#fff" stroke="#fff" stroke-width="0.5"/>
          </g>
          <g id="Group_59" data-name="Group 59" transform="translate(0 11.021)">
            <path id="Path_45" data-name="Path 45" d="M255.376,328.473c0,.074-13.832.134-30.889.134s-30.892-.06-30.892-.134,13.828-.134,30.892-.134S255.376,328.4,255.376,328.473Z" transform="translate(-193.595 -328.339)" fill="#fff" stroke="#fff" stroke-width="0.5"/>
          </g>
          <g id="Group_60" data-name="Group 60" transform="translate(0 16.698)">
            <path id="Path_46" data-name="Path 46" d="M234.063,339.485c0,.074-9.06.135-20.233.135s-20.235-.06-20.235-.135,9.058-.134,20.235-.134S234.063,339.411,234.063,339.485Z" transform="translate(-193.595 -339.351)" fill="#fff" stroke="#fff" stroke-width="0.5"/>
          </g>
        </g>
      </g>
    </g>
    <g id="Character_2" data-name="Character 2" transform="translate(1186.721 196)">
      <g id="Group_118" data-name="Group 118" transform="translate(0)">
        <g id="Group_106" data-name="Group 106">
          <path id="Path_47" data-name="Path 47" d="M365.14,109.357a4.66,4.66,0,0,0-1.559-3.005,3.083,3.083,0,0,1-.86-3.284c.315-1.171,1.058-1.084,1.351-1.771a5.208,5.208,0,0,0,.171-1.642,3.422,3.422,0,0,1,4.08-2.907,4.74,4.74,0,0,1,8.744-.91,3.646,3.646,0,0,1,5.317,2.959,2.654,2.654,0,0,1,3.451.521,3.271,3.271,0,0,1,.249,3.6,4.289,4.289,0,0,1-3.1,2.04,6.3,6.3,0,0,1-3.72-.676,12.041,12.041,0,0,1-3.051-2.305" transform="translate(-348.45 -93.32)" fill="#263238"/>
          <ellipse id="Ellipse_1" data-name="Ellipse 1" cx="22.315" cy="21.792" rx="22.315" ry="21.792" transform="translate(2.803 31.688)" fill="#e0e0e0"/>
          <g id="Group_101" data-name="Group 101" transform="translate(0 5.318)">
            <g id="Group_95" data-name="Group 95" transform="translate(3.421)">
              <path id="Path_48" data-name="Path 48" d="M416.727,191.151l-2.47-6.334-8.852,5.562,7.888,12.163A20.871,20.871,0,0,0,416.727,191.151Z" transform="translate(-372.625 -142.971)" fill="#eb996e"/>
              <g id="Group_86" data-name="Group 86" transform="translate(10.9)">
                <g id="Group_85" data-name="Group 85">
                  <g id="Group_84" data-name="Group 84" transform="translate(0 0.887)">
                    <g id="Group_81" data-name="Group 81">
                      <g id="Group_76" data-name="Group 76" transform="translate(2.809)">
                        <g id="Group_75" data-name="Group 75">
                          <g id="Group_63" data-name="Group 63">
                            <path id="Path_49" data-name="Path 49" d="M374.363,138.938h0a5.938,5.938,0,0,0,5.963-5.615c.131-2.623.24-5.148.24-5.148s4.87-.353,5.319-5.113.511-15.77.511-15.77h0a16.894,16.894,0,0,0-16.963.737l-.463.3-.562,24.636A5.938,5.938,0,0,0,374.363,138.938Z" transform="translate(-368.407 -105.359)" fill="#ffba99"/>
                          </g>
                          <g id="Group_67" data-name="Group 67" transform="translate(7.65 8.75)">
                            <g id="Group_64" data-name="Group 64" transform="translate(0.179 0.471)">
                              <path id="Path_50" data-name="Path 50" d="M384.516,123.282a.694.694,0,0,1,.444.878.7.7,0,0,1-.885.44.694.694,0,0,1-.445-.878A.7.7,0,0,1,384.516,123.282Z" transform="translate(-383.595 -123.246)" fill="#263238"/>
                            </g>
                            <g id="Group_66" data-name="Group 66">
                              <g id="Group_65" data-name="Group 65">
                                <path id="Path_51" data-name="Path 51" d="M385.682,123.087c-.08.078-.531-.31-1.194-.353s-1.165.268-1.233.179c-.033-.04.051-.184.27-.33a1.65,1.65,0,0,1,1.938.138C385.658,122.9,385.721,123.053,385.682,123.087Z" transform="translate(-383.247 -122.333)" fill="#263238"/>
                              </g>
                            </g>
                          </g>
                          <g id="Group_71" data-name="Group 71" transform="translate(15.006 8.765)">
                            <g id="Group_68" data-name="Group 68" transform="translate(0.09 0.456)">
                              <path id="Path_52" data-name="Path 52" d="M398.615,123.282a.694.694,0,0,1,.444.878.7.7,0,0,1-.886.44.694.694,0,0,1-.444-.878A.7.7,0,0,1,398.615,123.282Z" transform="translate(-397.694 -123.246)" fill="#263238"/>
                            </g>
                            <g id="Group_70" data-name="Group 70">
                              <g id="Group_69" data-name="Group 69">
                                <path id="Path_53" data-name="Path 53" d="M399.954,123.115c-.08.078-.531-.311-1.194-.353s-1.165.269-1.233.18c-.034-.04.05-.185.27-.33a1.65,1.65,0,0,1,1.938.139C399.93,122.926,399.992,123.081,399.954,123.115Z" transform="translate(-397.519 -122.362)" fill="#263238"/>
                              </g>
                            </g>
                          </g>
                          <g id="Group_73" data-name="Group 73" transform="translate(12.439 8.928)">
                            <g id="Group_72" data-name="Group 72">
                              <path id="Path_54" data-name="Path 54" d="M392.539,128.417a3.234,3.234,0,0,1,1.089-.139c.175,0,.314-.032.334-.124a.926.926,0,0,0-.084-.5l-.414-1.376a18.208,18.208,0,0,1-.847-3.6,18.2,18.2,0,0,1,1.21,3.494l.386,1.384a1.091,1.091,0,0,1,.037.721.454.454,0,0,1-.321.25,1.113,1.113,0,0,1-.3.014A3.245,3.245,0,0,1,392.539,128.417Z" transform="translate(-392.539 -122.679)" fill="#263238"/>
                            </g>
                          </g>
                          <g id="Group_74" data-name="Group 74" transform="translate(6.048 20.477)">
                            <path id="Path_55" data-name="Path 55" d="M386.265,147.354a11.286,11.286,0,0,1-6.124-2.271s1.2,3.549,6.034,3.507Z" transform="translate(-380.141 -145.083)" fill="#fcaa83"/>
                          </g>
                        </g>
                      </g>
                      <g id="Group_80" data-name="Group 80" transform="translate(0 9.221)">
                        <g id="Group_77" data-name="Group 77">
                          <path id="Path_56" data-name="Path 56" d="M366.213,123.985a.723.723,0,0,0-.68-.736c-.9-.042-2.374.282-2.56,2.737-.265,3.506,3.158,2.7,3.172,2.6C366.156,128.5,366.2,125.349,366.213,123.985Z" transform="translate(-362.958 -123.246)" fill="#ffba99"/>
                        </g>
                        <g id="Group_79" data-name="Group 79" transform="translate(0.947 1.117)">
                          <g id="Group_78" data-name="Group 78">
                            <path id="Path_57" data-name="Path 57" d="M366.281,128.239c-.014-.012-.065.038-.173.077a.623.623,0,0,1-.461-.025,1.51,1.51,0,0,1-.6-1.409,2.006,2.006,0,0,1,.239-.861.711.711,0,0,1,.5-.434.316.316,0,0,1,.351.194c.04.1.012.17.03.177s.08-.053.063-.2a.388.388,0,0,0-.123-.23.469.469,0,0,0-.334-.115.867.867,0,0,0-.685.5,2.064,2.064,0,0,0-.288.961,1.586,1.586,0,0,0,.784,1.581.667.667,0,0,0,.571-.051C366.269,128.323,366.293,128.246,366.281,128.239Z" transform="translate(-364.796 -125.414)" fill="#fcaa83"/>
                          </g>
                        </g>
                      </g>
                    </g>
                    <g id="Group_82" data-name="Group 82" transform="translate(9.722 6.681)">
                      <path id="Path_58" data-name="Path 58" d="M381.852,119.275c.175.225.785.12,1.576.086.79-.063,1.409-.033,1.553-.278.164-.255-.6-.839-1.62-.755C382.339,118.37,381.656,119.043,381.852,119.275Z" transform="translate(-381.818 -118.32)" fill="#263238"/>
                    </g>
                    <g id="Group_83" data-name="Group 83" transform="translate(17.463 6.65)">
                      <path id="Path_59" data-name="Path 59" d="M396.848,119.013c.1.306.676.4,1.321.394s1.223-.12,1.311-.428-.494-.73-1.325-.719S396.75,118.715,396.848,119.013Z" transform="translate(-396.837 -118.26)" fill="#263238"/>
                    </g>
                  </g>
                  <path id="Path_60" data-name="Path 60" d="M387.04,107.965a7.914,7.914,0,0,1-6.648-.478c-2.466-1.231-5.342-1.833-5.976-1.337s-.768,3.038-3.211,3.78c0,0,.168,4.85-1.766,4.677s-.725-7.685-.725-7.685l4.73-2.31,5.162-.975,4.864.686,3.763,1.03Z" transform="translate(-365.566 -103.637)" fill="#263238"/>
                </g>
              </g>
              <g id="Group_94" data-name="Group 94" transform="translate(0 24.153)">
                <g id="Group_90" data-name="Group 90" transform="translate(0 3.59)">
                  <path id="Path_61" data-name="Path 61" d="M341.812,162.107c5.055-5.2,13.953-4.631,13.953-4.631l7.375,5.279,4.182-4.869a27.12,27.12,0,0,1,8.514,2.635l.284.088,0,.059c3.235,1.757,7.816,5.97,12.18,10.059l-5.222,4.846-5.78,5.131a.155.155,0,0,1,.01.1c-.06.311.8,7.369,1.688,12.733a21.765,21.765,0,0,1-19.423,5.868,57.833,57.833,0,0,1-5.7-1.565A7.929,7.929,0,0,1,348,190.855h0c-.394-4.5-.694-10.062-.694-10.062" transform="translate(-341.812 -157.458)" fill="#455a64"/>
                  <g id="Group_87" data-name="Group 87" transform="translate(30.132 1.335)">
                    <path id="Path_62" data-name="Path 62" d="M400.27,160.048a5.629,5.629,0,0,1,.317.83c.189.539.446,1.325.751,2.3.609,1.95,1.384,4.666,2.117,7.7s1.281,5.8,1.629,7.816c.174,1.007.3,1.823.382,2.389a5.7,5.7,0,0,1,.1.883,5.51,5.51,0,0,1-.2-.865l-.465-2.372c-.4-2-.974-4.761-1.7-7.788s-1.477-5.744-2.038-7.706l-.668-2.323A5.624,5.624,0,0,1,400.27,160.048Z" transform="translate(-400.267 -160.048)" fill="#263238"/>
                  </g>
                  <g id="Group_88" data-name="Group 88" transform="translate(34.882 11.755)">
                    <path id="Path_63" data-name="Path 63" d="M409.483,188.427c-.046-.058,2.158-1.932,4.925-4.186s5.047-4.035,5.094-3.977-2.158,1.931-4.925,4.186S409.53,188.484,409.483,188.427Z" transform="translate(-409.483 -180.262)" fill="#263238"/>
                  </g>
                  <path id="Path_64" data-name="Path 64" d="M350.5,180.32,345.979,195.2l1.683.875,1.66-4.209S351.029,183.027,350.5,180.32Z" transform="translate(-343.831 -168.535)" opacity="0.2"/>
                  <g id="Group_89" data-name="Group 89" transform="translate(23.21 0.351)" opacity="0.2">
                    <path id="Path_65" data-name="Path 65" d="M393.273,159.132c2.439,1.286-3.674,4.38-6.435,4.3l2-5.29A27.833,27.833,0,0,1,393.273,159.132Z" transform="translate(-386.838 -158.139)"/>
                  </g>
                </g>
                <path id="Path_66" data-name="Path 66" d="M367.468,154.434v-3.941s7.7,1.981,7.978,6.587c0,0,.979-5.091,4.945-5.336l.56,7.162-4.615,4.016h-4.678l-3.706-3.2-.484-4.973" transform="translate(-354.243 -150.493)" fill="#455a64"/>
                <g id="Group_91" data-name="Group 91" transform="translate(21.154 7.284)">
                  <path id="Path_67" data-name="Path 67" d="M384.631,186.02a5.075,5.075,0,0,1-.013-.847c.011-.545.021-1.333.024-2.306.007-1.946-.054-4.636-.3-7.594s-.631-5.622-.959-7.541c-.164-.924-.3-1.689-.4-2.27a5.107,5.107,0,0,1-.127-.838,5.145,5.145,0,0,1,.229.816c.132.529.3,1.3.489,2.258a70.717,70.717,0,0,1,1.26,15.172c-.027.975-.066,1.763-.109,2.308A5.223,5.223,0,0,1,384.631,186.02Z" transform="translate(-382.849 -164.623)" fill="#263238"/>
                </g>
                <g id="Group_92" data-name="Group 92" transform="translate(12.942 3.197)">
                  <path id="Path_68" data-name="Path 68" d="M374.826,158.759a.931.931,0,0,0-.457.042c-.294.095-.557.461-.773.984a22.289,22.289,0,0,0-1.464,4.259l-.041.176-.156-.093c-.46-.278-.932-.579-1.407-.9a28.179,28.179,0,0,1-2.5-1.9,3.155,3.155,0,0,1-.85-1.113,3.509,3.509,0,0,1-.259-1.189,6.888,6.888,0,0,1,.171-1.724,2.545,2.545,0,0,1,.169-.61,3.279,3.279,0,0,1-.066.627,8.142,8.142,0,0,0-.085,1.694,3.412,3.412,0,0,0,.274,1.11,2.962,2.962,0,0,0,.81,1.018c.728.608,1.573,1.241,2.484,1.86.471.319.938.619,1.392.9l-.2.082a19.481,19.481,0,0,1,1.567-4.273,3.235,3.235,0,0,1,.405-.663,1.03,1.03,0,0,1,.491-.333C374.666,158.624,374.838,158.755,374.826,158.759Z" transform="translate(-366.919 -156.695)" fill="#263238"/>
                </g>
                <g id="Group_93" data-name="Group 93" transform="translate(21.792 1.252)">
                  <path id="Path_69" data-name="Path 69" d="M388.444,152.921a2.818,2.818,0,0,1,.072.615l.123,1.677c.058.707.143,1.546.288,2.471a4.137,4.137,0,0,1,.093,1.513,2.6,2.6,0,0,1-1.013,1.293,11.4,11.4,0,0,0-1.694,1.287l-.205.23-.02-.307a9.222,9.222,0,0,0-1.137-3.839c-.489-.878-.893-1.329-.861-1.355a1.46,1.46,0,0,1,.3.3,7.574,7.574,0,0,1,.7.969,8.793,8.793,0,0,1,1.254,3.9l-.225-.077a10.814,10.814,0,0,1,1.725-1.329,2.384,2.384,0,0,0,.92-1.145,4.073,4.073,0,0,0-.082-1.411c-.132-.935-.2-1.783-.233-2.495s-.04-1.288-.038-1.686A2.692,2.692,0,0,1,388.444,152.921Z" transform="translate(-384.089 -152.921)" fill="#263238"/>
                </g>
              </g>
            </g>
            <g id="Group_100" data-name="Group 100" transform="translate(0 26.394)">
              <g id="Group_97" data-name="Group 97" transform="translate(2.757)">
                <path id="Path_70" data-name="Path 70" d="M429.66,154.84c-.313.369-11.646,15.522-11.646,15.522l1.6.9,11.63-14.961Z" transform="translate(-378.07 -154.84)" fill="#263238"/>
                <path id="Path_71" data-name="Path 71" d="M346.586,173.539s11.922,17.162,12.641,17.5c1.415.664,17.726-13.431,19.281-14.78.214-.286.657-.891,1.526-2.093,0,0,1.287-5.889,2.66-5.436s-.752,2.992.142,5.229,4.99-3.1,5.154-3.578l1.056-1.38a18.127,18.127,0,0,1,1.033,4.452c-.241,4.2-4.216,9.2-4.216,9.2s-17.851,22.113-30.078,22.8c-3.522.2-9.78-9.795-13.964-17.288a10.253,10.253,0,0,1,2.922-13.279Z" transform="translate(-340.523 -161.558)" fill="#ffba99"/>
                <g id="Group_96" data-name="Group 96" transform="translate(47.546 9.536)">
                  <path id="Path_72" data-name="Path 72" d="M432.764,176.445c-.04-.025.342-.7.764-1.555s.729-1.568.773-1.551a9.688,9.688,0,0,1-1.537,3.106Z" transform="translate(-432.761 -173.339)" fill="#fcaa83"/>
                </g>
              </g>
              <g id="Group_99" data-name="Group 99" transform="translate(0 3.606)">
                <path id="Path_73" data-name="Path 73" d="M341.976,161.835s-12.8,4.55-3.283,26.069l14.773-8.916-2.1-5.032Z" transform="translate(-335.175 -161.835)" fill="#455a64"/>
                <g id="Group_98" data-name="Group 98" transform="translate(3.518 0.353)">
                  <path id="Path_74" data-name="Path 74" d="M344.3,162.539a4.443,4.443,0,0,1,1.541.129,6.272,6.272,0,0,1,1.678.708,9.076,9.076,0,0,1,1.864,1.53,22.35,22.35,0,0,1,3.476,5.193c1.083,2.092,2.093,4.475,3.129,6.979l.906,2.189.046.111-.105.057c-4.274,2.33-8,4.512-10.626,6.145-1.316.814-2.364,1.485-3.084,1.95l-.829.532a1.8,1.8,0,0,1-.3.172,1.752,1.752,0,0,1,.269-.213c.182-.132.449-.328.8-.572.7-.491,1.738-1.184,3.043-2.021,2.609-1.675,6.32-3.888,10.594-6.227l-.059.168-.908-2.189c-1.036-2.5-2.037-4.883-3.1-6.969a22.747,22.747,0,0,0-3.394-5.176,9.137,9.137,0,0,0-1.805-1.533,6.4,6.4,0,0,0-1.626-.735A9.238,9.238,0,0,0,344.3,162.539Z" transform="translate(-342 -162.52)" fill="#263238"/>
                </g>
              </g>
            </g>
          </g>
          <g id="Group_102" data-name="Group 102" transform="translate(23.007 3.784)">
            <path id="Path_75" data-name="Path 75" d="M390.15,100.661a.768.768,0,0,1,.063.225,2.928,2.928,0,0,1,.037.668,3.417,3.417,0,0,1-4.42,3.1,3.043,3.043,0,0,1-1.763-1.278,1.8,1.8,0,0,1-.264-1.164,1.506,1.506,0,0,1,.632-1.064,1.308,1.308,0,0,1,1.238-.079,1.573,1.573,0,0,1,.846.85,2.257,2.257,0,0,1-.338,2.143,2.688,2.688,0,0,1-3.381.735,5.773,5.773,0,0,0-1.273-.489,1.6,1.6,0,0,0-.985.1,5.325,5.325,0,0,0-.733.483c-.007-.006.045-.066.15-.177a1.283,1.283,0,0,1,.21-.189,1.579,1.579,0,0,1,.328-.211,1.678,1.678,0,0,1,1.055-.157,5.653,5.653,0,0,1,1.324.462,3.748,3.748,0,0,0,.744.246,2.351,2.351,0,0,0,.83-.015,2.436,2.436,0,0,0,1.531-.938,2.016,2.016,0,0,0,.295-1.895,1.215,1.215,0,0,0-1.693-.647,1.244,1.244,0,0,0-.516.875,1.541,1.541,0,0,0,.225.993,2.808,2.808,0,0,0,1.607,1.176,3.3,3.3,0,0,0,3.24-.766,3.5,3.5,0,0,0,1.007-2.106A7.044,7.044,0,0,0,390.15,100.661Z" transform="translate(-379.809 -100.661)" fill="#455a64"/>
          </g>
          <g id="Group_103" data-name="Group 103" transform="translate(28.035 21.952)">
            <path id="Path_76" data-name="Path 76" d="M392.089,137.177c.006.033-.158.1-.442.112a2.294,2.294,0,0,1-1.9-.959c-.159-.235-.2-.407-.172-.422a3.532,3.532,0,0,0,2.518,1.269Z" transform="translate(-389.562 -135.906)" fill="#263238"/>
          </g>
          <g id="Group_104" data-name="Group 104" transform="translate(15.36 20.069)">
            <path id="Path_77" data-name="Path 77" d="M366.657,133.128c.024-.022.169.227-.019.581a.86.86,0,0,1-.525.417.893.893,0,0,1-.8-.21.96.96,0,0,1-.339-.748,1.031,1.031,0,0,1,.235-.617c.247-.291.5-.318.5-.289.02.039-.182.13-.349.4a.8.8,0,0,0,.126,1.052.679.679,0,0,0,.568.172.722.722,0,0,0,.422-.277C366.665,133.357,366.615,133.133,366.657,133.128Z" transform="translate(-364.973 -132.253)" fill="#263238"/>
          </g>
          <g id="Group_105" data-name="Group 105" transform="translate(30.608 5.521)">
            <path id="Path_78" data-name="Path 78" d="M398.143,104.03a1.7,1.7,0,0,1,.248.946,3.147,3.147,0,0,1-2.865,3.3,1.7,1.7,0,0,1-.972-.111c.006-.046.375.022.947-.077a3.182,3.182,0,0,0,2.7-3.114C398.217,104.4,398.1,104.042,398.143,104.03Z" transform="translate(-394.553 -104.029)" fill="#455a64"/>
          </g>
        </g>
        <g id="Group_107" data-name="Group 107" transform="translate(1.464 48.648)">
          <path id="Path_79" data-name="Path 79" d="M353.317,187.7c.033.066-3.366,1.814-7.591,3.9s-7.678,3.729-7.711,3.662,3.366-1.813,7.592-3.9S353.284,187.631,353.317,187.7Z" transform="translate(-338.015 -187.695)" fill="#e0e0e0"/>
        </g>
        <g id="Group_108" data-name="Group 108" transform="translate(0.025 42.801)">
          <path id="Path_80" data-name="Path 80" d="M348.867,176.355c.035.066-2.991,1.758-6.757,3.779s-6.85,3.608-6.885,3.543,2.99-1.757,6.758-3.779S348.832,176.29,348.867,176.355Z" transform="translate(-335.224 -176.353)" fill="#e0e0e0"/>
        </g>
        <g id="Group_109" data-name="Group 109" transform="translate(0.229 38.073)">
          <path id="Path_81" data-name="Path 81" d="M346.066,167.184a12.273,12.273,0,0,1-1.514.9l-3.7,2.064-3.681,2.1a12.126,12.126,0,0,1-1.55.832,10.722,10.722,0,0,1,1.452-.994c.918-.581,2.2-1.356,3.647-2.171s2.772-1.513,3.744-2A10.713,10.713,0,0,1,346.066,167.184Z" transform="translate(-335.62 -167.181)" fill="#e0e0e0"/>
        </g>
        <g id="Group_110" data-name="Group 110" transform="translate(16.65 32.667)">
          <path id="Path_82" data-name="Path 82" d="M372.821,160.983a2.417,2.417,0,0,1-1-.268,7.628,7.628,0,0,1-2.085-1.357,14.292,14.292,0,0,1-1.681-1.82,3.735,3.735,0,0,1-.582-.845,4.08,4.08,0,0,1,.726.722,24.3,24.3,0,0,0,1.715,1.743,9.548,9.548,0,0,0,1.986,1.385C372.459,160.827,372.832,160.943,372.821,160.983Z" transform="translate(-367.475 -156.692)" fill="#e0e0e0"/>
        </g>
        <g id="Group_111" data-name="Group 111" transform="translate(26.738 34.165)">
          <path id="Path_83" data-name="Path 83" d="M389.823,159.6a3.588,3.588,0,0,1-2.776,2.337,18.01,18.01,0,0,0,1.532-1C389.353,160.3,389.752,159.561,389.823,159.6Z" transform="translate(-387.047 -159.598)" fill="#e0e0e0"/>
        </g>
        <g id="Group_112" data-name="Group 112" transform="translate(14.3 41.916)">
          <path id="Path_84" data-name="Path 84" d="M391.535,174.643a1.238,1.238,0,0,1-.288.054l-.829.1c-.721.08-1.766.18-3.059.281-2.586.206-6.163.408-10.117.552s-7.538.192-10.132.171c-1.3-.008-2.346-.034-3.071-.062l-.834-.043a1.175,1.175,0,0,1-.29-.033,1.2,1.2,0,0,1,.291-.021l.835-.008,3.069-.024c2.591-.027,6.17-.111,10.123-.249s7.527-.316,10.114-.473l3.062-.2.833-.052A1.2,1.2,0,0,1,391.535,174.643Z" transform="translate(-362.916 -174.636)" fill="#e0e0e0"/>
        </g>
        <g id="Group_113" data-name="Group 113" transform="translate(17.097 48.027)">
          <path id="Path_85" data-name="Path 85" d="M390.094,186.5a5.251,5.251,0,0,1-.848.133c-.547.069-1.341.154-2.323.242-1.963.181-4.682.368-7.688.49s-5.732.153-7.7.131c-.986-.009-1.784-.03-2.335-.054a5.2,5.2,0,0,1-.855-.064,5.191,5.191,0,0,1,.856-.04l2.332-.031c1.97-.027,4.69-.09,7.693-.21s5.719-.279,7.684-.411l2.327-.157A5.353,5.353,0,0,1,390.094,186.5Z" transform="translate(-368.343 -186.491)" fill="#e0e0e0"/>
        </g>
        <g id="Group_114" data-name="Group 114" transform="translate(17.866 55.558)">
          <path id="Path_86" data-name="Path 86" d="M381.577,201.118a10.327,10.327,0,0,1-1.709.241c-1.059.109-2.526.227-4.149.308s-3.1.109-4.16.106a10.253,10.253,0,0,1-1.724-.07,11.755,11.755,0,0,1,1.72-.12l4.151-.184,4.147-.229A11.71,11.71,0,0,1,381.577,201.118Z" transform="translate(-369.835 -201.101)" fill="#e0e0e0"/>
        </g>
        <g id="Group_115" data-name="Group 115" transform="translate(10.735 37.562)">
          <path id="Path_87" data-name="Path 87" d="M363.061,166.311c0,.077-1.583.094-3.529.176s-3.524.191-3.532.114a26.342,26.342,0,0,1,7.061-.29Z" transform="translate(-356 -166.189)" fill="#e0e0e0"/>
        </g>
        <g id="Group_116" data-name="Group 116" transform="translate(30.381 37.254)">
          <path id="Path_88" data-name="Path 88" d="M403.274,165.743a78.184,78.184,0,0,1-9.16-.034,78.183,78.183,0,0,1,9.16.034Z" transform="translate(-394.114 -165.591)" fill="#e0e0e0"/>
        </g>
        <g id="Group_117" data-name="Group 117" transform="translate(27.067 68.769)">
          <path id="Path_89" data-name="Path 89" d="M400.951,226.734a2.1,2.1,0,0,1-.47.27c-.309.16-.767.371-1.341.611a29.31,29.31,0,0,1-9.442,2.176c-.621.035-1.125.046-1.473.038a2.117,2.117,0,0,1-.54-.037c0-.043.767-.073,2-.19a36.154,36.154,0,0,0,9.387-2.164C400.23,227,400.933,226.695,400.951,226.734Z" transform="translate(-387.685 -226.731)" fill="#e0e0e0"/>
        </g>
      </g>
    </g>
    <g id="Character_1" data-name="Character 1" transform="translate(1056.347 260.437)">
      <g id="Group_174" data-name="Group 174">
        <ellipse id="Ellipse_2" data-name="Ellipse 2" cx="22.315" cy="21.287" rx="22.315" ry="21.287" transform="translate(9.15 31.922)" fill="#e0e0e0"/>
        <g id="Group_151" data-name="Group 151" transform="translate(16.764)">
          <path id="Path_90" data-name="Path 90" d="M124.93,221.982c-3.54.184-4.93,3.875-5.353,4.7a7.139,7.139,0,0,0-.568,2.7,5.873,5.873,0,0,1-.679,2.666c-.779,1.243-2.417,1.886-2.862,3.284-.5,1.581.79,3.272.445,4.9-.185.871-.821,1.589-1.046,2.451a3.607,3.607,0,0,0,.478,2.676,7.012,7.012,0,0,0,5.882,3.082A20.7,20.7,0,0,0,128,247.144" transform="translate(-114.776 -220.098)" fill="#263238"/>
          <path id="Path_91" data-name="Path 91" d="M161.692,230.88a2.205,2.205,0,0,0,.524,2.281,14.209,14.209,0,0,0,1.916,1.561,3.129,3.129,0,0,1,1.308,2.023c.069.755-.31,1.5-.208,2.255.264,1.93,3.342,2.508,3.506,4.45.109,1.292-1.217,2.479-.849,3.723a5.9,5.9,0,0,0,.766,1.272,3.784,3.784,0,0,1-.985,4.574,7.521,7.521,0,0,1-4.716,1.6c-1.422.064-3.038-.169-3.875-1.32-.767-1.053-.609-2.49-.456-3.783a132.408,132.408,0,0,0,.471-18.227" transform="translate(-135.961 -224.409)" fill="#263238"/>
          <g id="Group_142" data-name="Group 142" transform="translate(5.92 1.452)">
            <g id="Group_141" data-name="Group 141">
              <g id="Group_140" data-name="Group 140">
                <g id="Group_134" data-name="Group 134" transform="translate(0.059 3.099)">
                  <g id="Group_119" data-name="Group 119">
                    <path id="Path_92" data-name="Path 92" d="M131.48,257.029c.027-3.173,0-6.515,0-6.515s-4.08-.726-4.866-6.07c-.748-5.1.522-16.057.522-16.057h0c5.911-2.331,12.567-1.43,16.708,3.328h0l-.644,25.771a5.529,5.529,0,0,1-5.909,5.206h0A5.841,5.841,0,0,1,131.48,257.029Z" transform="translate(-126.375 -227.155)" fill="#ffba99"/>
                  </g>
                  <g id="Group_123" data-name="Group 123" transform="translate(0.758 8.417)">
                    <g id="Group_120" data-name="Group 120" transform="translate(1.11 0.622)">
                      <path id="Path_93" data-name="Path 93" d="M130,245.3a.684.684,0,0,0,.652.7.654.654,0,0,0,.712-.608.684.684,0,0,0-.651-.7A.654.654,0,0,0,130,245.3Z" transform="translate(-129.999 -244.69)" fill="#263238"/>
                    </g>
                    <g id="Group_122" data-name="Group 122">
                      <g id="Group_121" data-name="Group 121">
                        <path id="Path_94" data-name="Path 94" d="M127.855,244.187c.084.09.607-.287,1.343-.277,1.385.2,1.36.412,1.352.3.04-.04-.045-.2-.278-.376a1.877,1.877,0,0,0-1.081-.347,1.8,1.8,0,0,0-1.07.332C127.892,243.986,127.814,244.146,127.855,244.187Z" transform="translate(-127.845 -243.483)" fill="#263238"/>
                      </g>
                    </g>
                  </g>
                  <g id="Group_127" data-name="Group 127" transform="translate(8.435 8.671)">
                    <g id="Group_124" data-name="Group 124" transform="translate(0.966 0.585)">
                      <path id="Path_95" data-name="Path 95" d="M144.614,245.722a.685.685,0,0,0,.652.7.655.655,0,0,0,.712-.609.685.685,0,0,0-.651-.7A.655.655,0,0,0,144.614,245.722Z" transform="translate(-144.614 -245.111)" fill="#263238"/>
                    </g>
                    <g id="Group_126" data-name="Group 126">
                      <g id="Group_125" data-name="Group 125">
                        <path id="Path_96" data-name="Path 96" d="M142.749,244.68c.084.09.607-.287,1.343-.277s1.271.385,1.352.3c.04-.04-.044-.2-.278-.375a1.88,1.88,0,0,0-1.081-.347,1.805,1.805,0,0,0-1.07.332C142.787,244.479,142.709,244.639,142.749,244.68Z" transform="translate(-142.739 -243.976)" fill="#263238"/>
                      </g>
                    </g>
                  </g>
                  <g id="Group_129" data-name="Group 129" transform="translate(3.842 8.526)">
                    <g id="Group_128" data-name="Group 128">
                      <path id="Path_97" data-name="Path 97" d="M135.7,249.824a4.888,4.888,0,0,0-1.193-.229c-.188-.022-.365-.061-.4-.19a.954.954,0,0,1,.132-.556l.572-1.425a24.621,24.621,0,0,0,1.292-3.729,24.634,24.634,0,0,0-1.589,3.616l-.549,1.434a1.089,1.089,0,0,0-.106.737.473.473,0,0,0,.306.278,1.3,1.3,0,0,0,.319.048A4.8,4.8,0,0,0,135.7,249.824Z" transform="translate(-133.828 -243.694)" fill="#263238"/>
                    </g>
                  </g>
                  <g id="Group_130" data-name="Group 130" transform="translate(5.102 21.537)">
                    <path id="Path_98" data-name="Path 98" d="M136.273,270.759a13.566,13.566,0,0,0,7.165-1.823s-1.775,3.644-7.108,3.083Z" transform="translate(-136.273 -268.936)" fill="#fcaa83"/>
                  </g>
                  <g id="Group_131" data-name="Group 131" transform="translate(5.927 15.944)">
                    <path id="Path_99" data-name="Path 99" d="M137.948,258.575a1.326,1.326,0,0,1,1.195-.479,1.21,1.21,0,0,1,.831.458.767.767,0,0,1,.048.878.891.891,0,0,1-.968.233,2.788,2.788,0,0,1-.934-.573.808.808,0,0,1-.208-.22.247.247,0,0,1,0-.274" transform="translate(-137.873 -258.086)" fill="#fcaa83"/>
                  </g>
                  <g id="Group_133" data-name="Group 133" transform="translate(5.503 15.189)">
                    <g id="Group_132" data-name="Group 132">
                      <path id="Path_100" data-name="Path 100" d="M139.419,256.622c-.12-.009-.13.791-.821,1.35s-1.54.462-1.547.573c-.012.05.188.157.547.171a1.987,1.987,0,0,0,1.291-.433,1.731,1.731,0,0,0,.637-1.133C139.56,256.817,139.474,256.618,139.419,256.622Z" transform="translate(-137.05 -256.622)" fill="#263238"/>
                    </g>
                  </g>
                </g>
                <g id="Group_135" data-name="Group 135">
                  <path id="Path_101" data-name="Path 101" d="M141.469,225c-1.952,2.784-7.119,5.645-10.819,6.31.432-.569,2.7-1.97,3.137-2.539-1.677,1.253-4.077,2.928-6.3,3.041a1.351,1.351,0,0,1-.764-.119,1.032,1.032,0,0,1-.389-.838,22.234,22.234,0,0,1,.154-4.834,5.349,5.349,0,0,1,1.925-3.449,9.234,9.234,0,0,1,5.388-1.419,12.19,12.19,0,0,1,4.747.639,4.454,4.454,0,0,1,2.95,3.114" transform="translate(-126.261 -221.142)" fill="#263238"/>
                </g>
                <g id="Group_136" data-name="Group 136" transform="translate(10.673 0.617)">
                  <path id="Path_102" data-name="Path 102" d="M157.1,238.046a30.2,30.2,0,0,0,.533-3.565c.157-2.753-.638-12.912-10.128-12.094l-.383,2.89s-1.467,9.894,4.672,9.967a11.038,11.038,0,0,0,3.119,5.815s1.61-.049,2.187-3.013" transform="translate(-146.965 -222.339)" fill="#263238"/>
                </g>
                <g id="Group_137" data-name="Group 137" transform="translate(15.235 13.461)">
                  <path id="Path_103" data-name="Path 103" d="M156.079,247.317a3.183,3.183,0,0,1,1.715.13,2.221,2.221,0,0,1,1.244,1.155,2.322,2.322,0,0,1-.005,1.705,3.929,3.929,0,0,1-.988,1.423A2.665,2.665,0,0,1,157,252.4a1.272,1.272,0,0,1-1.186-.2" transform="translate(-155.816 -247.257)" fill="#ffba99"/>
                </g>
                <g id="Group_139" data-name="Group 139" transform="translate(15.763 14.259)">
                  <g id="Group_138" data-name="Group 138">
                    <path id="Path_104" data-name="Path 104" d="M156.851,251.528c-.065.021.178.369.7.234a1.124,1.124,0,0,0,.651-.555,2.53,2.53,0,0,0,.295-.943,1.488,1.488,0,0,0-.23-1.007.992.992,0,0,0-.744-.452c-.537-.018-.707.352-.646.363.042.044.253-.145.6-.057a.961.961,0,0,1,.581,1.108c-.07.586-.3,1.121-.616,1.251C157.12,251.633,156.887,251.481,156.851,251.528Z" transform="translate(-156.841 -248.805)" fill="#fcaa83"/>
                  </g>
                </g>
              </g>
            </g>
          </g>
          <path id="Path_105" data-name="Path 105" d="M157.569,222.661a3.236,3.236,0,0,0,4.38-1.151,2.071,2.071,0,0,0,.3-1.548,2.13,2.13,0,0,0-1.594-1.382,3.256,3.256,0,0,0-2.992.719,2.858,2.858,0,0,0-.773,2.937,2.548,2.548,0,0,0,2.461,1.7" transform="translate(-135.115 -218.399)" fill="#263238"/>
          <path id="Path_106" data-name="Path 106" d="M157.078,256.445a7.519,7.519,0,0,0-1.475,1.272,2.54,2.54,0,0,0-.637,1.795,4.672,4.672,0,0,1,.12,1.082,3.613,3.613,0,0,1-.748,1.286,3.057,3.057,0,0,0,.482,3.582,4.959,4.959,0,0,0,3.507,1.425,3,3,0,0,0,3.407-3.38" transform="translate(-133.759 -236.796)" fill="#263238"/>
          <g id="Group_143" data-name="Group 143" transform="translate(18.277 6.39)">
            <path id="Path_107" data-name="Path 107" d="M155.919,230.724a3.505,3.505,0,0,1-.559.973,11.27,11.27,0,0,1-4.081,3.507,3.516,3.516,0,0,1-1.046.407,16.522,16.522,0,0,0,5.686-4.887Z" transform="translate(-150.233 -230.723)" fill="#455a64"/>
          </g>
          <g id="Group_144" data-name="Group 144" transform="translate(20.472 6.339)">
            <path id="Path_108" data-name="Path 108" d="M158.967,230.624a4.232,4.232,0,0,1-.175,1.3,10.506,10.506,0,0,1-3.232,5.372,4.217,4.217,0,0,1-1.068.764,13.247,13.247,0,0,0,4.475-7.437Z" transform="translate(-154.491 -230.624)" fill="#455a64"/>
          </g>
          <g id="Group_145" data-name="Group 145" transform="translate(4.301 10.635)">
            <path id="Path_109" data-name="Path 109" d="M123.162,238.958c.079-.006.18.888.489,1.942s.691,1.867.621,1.9a6.105,6.105,0,0,1-1.11-3.845Z" transform="translate(-123.121 -238.958)" fill="#455a64"/>
          </g>
          <g id="Group_146" data-name="Group 146" transform="translate(24.956 11.75)">
            <path id="Path_110" data-name="Path 110" d="M165.312,258.243a1.492,1.492,0,0,0,.785.252,1.606,1.606,0,0,0,.908-.286,1.832,1.832,0,0,0,.688-1.042,3.359,3.359,0,0,0,.01-1.554c-.111-.559-.328-1.138-.52-1.769a4.665,4.665,0,0,1-.229-2.077,11.66,11.66,0,0,1,.847-2.046,2.679,2.679,0,0,0-1.566-3.325c-.295-.126-.6-.233-.884-.387a1.8,1.8,0,0,1-.706-.633,2.968,2.968,0,0,1-.319-1.622,5.54,5.54,0,0,0-.053-1.311,2.142,2.142,0,0,0-.387-.888,1.277,1.277,0,0,0-.7-.43.472.472,0,0,1,.225.018,1.075,1.075,0,0,1,.55.344,2.179,2.179,0,0,1,.454.922,5.408,5.408,0,0,1,.1,1.344,2.822,2.822,0,0,0,.317,1.5,2.866,2.866,0,0,0,1.5.911,2.923,2.923,0,0,1,1.723,3.642,12.361,12.361,0,0,0-.841,2,4.467,4.467,0,0,0,.207,1.963c.18.621.394,1.212.5,1.8a3.5,3.5,0,0,1-.046,1.649,1.967,1.967,0,0,1-.787,1.114,1.676,1.676,0,0,1-.995.266,1.214,1.214,0,0,1-.617-.2A.563.563,0,0,1,165.312,258.243Z" transform="translate(-163.191 -241.12)" fill="#455a64"/>
          </g>
          <g id="Group_147" data-name="Group 147" transform="translate(23.353 19.686)">
            <path id="Path_111" data-name="Path 111" d="M160.084,265.34c.024-.015.068.165.318.279a.846.846,0,0,0,1-.271,1.578,1.578,0,0,0-.083-1.613,6.758,6.758,0,0,1-1.027-2,1.451,1.451,0,0,1,.287-1.189c.252-.311.548-.519.742-.773a2.247,2.247,0,0,0,.359-1.646,6.39,6.39,0,0,0-.3-1.17,1.536,1.536,0,0,1-.119-.436,1.425,1.425,0,0,1,.217.4,5.021,5.021,0,0,1,.386,1.179,2.386,2.386,0,0,1-.35,1.823c-.219.3-.519.513-.731.786a1.194,1.194,0,0,0-.229.983,7.175,7.175,0,0,0,.982,1.934,1.752,1.752,0,0,1,.018,1.839.923.923,0,0,1-.654.358.9.9,0,0,1-.547-.105C160.077,265.544,160.074,265.332,160.084,265.34Z" transform="translate(-160.081 -256.517)" fill="#455a64"/>
          </g>
          <g id="Group_148" data-name="Group 148" transform="translate(1.614 14.121)">
            <path id="Path_112" data-name="Path 112" d="M119.443,258.762a2.294,2.294,0,0,1-.42-.419,5.089,5.089,0,0,1-.9-1.355,2.7,2.7,0,0,1-.216-1.125,1.96,1.96,0,0,1,.454-1.249c.32-.371.783-.562,1.062-.909a1.519,1.519,0,0,0,.213-1.326,5.656,5.656,0,0,0-.566-1.362,4.677,4.677,0,0,1-.5-1.353,1.768,1.768,0,0,1,.265-1.3,4.536,4.536,0,0,1,.785-.819,2.354,2.354,0,0,0,.88-1.256,1.549,1.549,0,0,0-.022-.568c.006,0,.041.04.078.136a.92.92,0,0,1,.047.448,2.344,2.344,0,0,1-.855,1.379,4.571,4.571,0,0,0-.727.8,1.548,1.548,0,0,0-.208,1.14,4.582,4.582,0,0,0,.491,1.273,5.737,5.737,0,0,1,.593,1.423,1.771,1.771,0,0,1-.271,1.552c-.35.412-.811.59-1.081.907a1.751,1.751,0,0,0-.418,1.094,2.576,2.576,0,0,0,.171,1.046,5.761,5.761,0,0,0,.8,1.359A2.757,2.757,0,0,1,119.443,258.762Z" transform="translate(-117.907 -245.72)" fill="#455a64"/>
          </g>
          <g id="Group_149" data-name="Group 149" transform="translate(21.734 2.706)">
            <path id="Path_113" data-name="Path 113" d="M159.852,225.806a5.21,5.21,0,0,0-2.912-2.2,3.082,3.082,0,0,1,2.912,2.2Z" transform="translate(-156.94 -223.576)" fill="#e8505b"/>
          </g>
          <g id="Group_150" data-name="Group 150" transform="translate(24.304)">
            <path id="Path_114" data-name="Path 114" d="M163.013,218.327c.027-.017.2.185.339.585a2.793,2.793,0,0,1-.833,3.016c-.325.272-.576.356-.591.328s.189-.177.46-.465a3.066,3.066,0,0,0,.781-2.827A3.9,3.9,0,0,1,163.013,218.327Z" transform="translate(-161.926 -218.326)" fill="#455a64"/>
          </g>
        </g>
        <path id="Path_115" data-name="Path 115" d="M113.254,338.643s12.807,12.161,20.42,9.959,9.866-7.914,9.866-7.914l.185-2.046-.763-.5-29.31-2.373Z" transform="translate(-97.274 -275.232)" opacity="0.3"/>
        <g id="Group_173" data-name="Group 173" transform="translate(0 30.234)">
          <g id="Group_154" data-name="Group 154" transform="translate(7.968 1.207)">
            <path id="Path_116" data-name="Path 116" d="M98.555,313.29l2.47-6.333,8.852,5.561-7.888,12.164A20.872,20.872,0,0,1,98.555,313.29Z" transform="translate(-98.12 -292.711)" fill="#ffdac7"/>
            <g id="Group_153" data-name="Group 153">
              <g id="Group_152" data-name="Group 152">
                <path id="Path_117" data-name="Path 117" d="M108.136,282.4a31.6,31.6,0,0,1,9.453-2.772h0c1.548,3.1,6.427,3.492,9.382,1.377l2.491-1.684a9.019,9.019,0,0,1,1.044.043,13.305,13.305,0,0,1,11.785,10.6,26.571,26.571,0,0,1,.623,6.7c-.324,5.631-6.156,6.14-6.156,6.14s-.3,5.567-.694,10.062h0a8.394,8.394,0,0,1-5.1,7.274,20.714,20.714,0,0,1-6.5,2,21.835,21.835,0,0,1-19.373-6.708c.885-5.363,1.73-12.308,1.67-12.619a.155.155,0,0,1,.01-.1l-5.78-5.131-3.276-2.751s7.189-10.67,10.424-12.426" transform="translate(-97.712 -279.32)" fill="#e8505b"/>
              </g>
            </g>
          </g>
          <g id="Group_155" data-name="Group 155" transform="translate(16.522 7.17)">
            <path id="Path_118" data-name="Path 118" d="M123.339,291.476a3.072,3.072,0,0,0-1.429-.395,2.352,2.352,0,0,0-1.474.511,6.312,6.312,0,0,0-.656.705,1.708,1.708,0,0,1-.935.621,1.523,1.523,0,0,1-1.089-.292c-.3-.19-.551-.4-.811-.547a1.769,1.769,0,0,0-1.512-.132,2,2,0,0,0-.878.606c-.162.2-.222.337-.244.327a.789.789,0,0,1,.159-.389,1.995,1.995,0,0,1,2.6-.628c.288.158.548.365.829.54a1.278,1.278,0,0,0,.9.251,1.481,1.481,0,0,0,.788-.533,5.914,5.914,0,0,1,.7-.722,2.47,2.47,0,0,1,1.631-.508,2.35,2.35,0,0,1,1.1.315C123.25,291.349,123.347,291.466,123.339,291.476Z" transform="translate(-114.307 -290.888)" fill="#fafafa"/>
          </g>
          <g id="Group_156" data-name="Group 156" transform="translate(22.422 13.177)">
            <path id="Path_119" data-name="Path 119" d="M134.758,304.818a3.07,3.07,0,0,0-1.228-.831,2.348,2.348,0,0,0-1.56.013,6.23,6.23,0,0,0-.847.458,1.709,1.709,0,0,1-1.085.289,1.522,1.522,0,0,1-.938-.624c-.221-.275-.395-.553-.594-.778a1.77,1.77,0,0,0-1.391-.608,2,2,0,0,0-1.026.293c-.218.139-.318.249-.336.233s.063-.143.275-.318a1.994,1.994,0,0,1,2.661.235c.222.241.4.522.613.777a1.282,1.282,0,0,0,.775.525,1.478,1.478,0,0,0,.917-.253,5.922,5.922,0,0,1,.891-.461,2.472,2.472,0,0,1,1.708.04,2.359,2.359,0,0,1,.946.652A.875.875,0,0,1,134.758,304.818Z" transform="translate(-125.752 -302.542)" fill="#fafafa"/>
          </g>
          <g id="Group_157" data-name="Group 157" transform="translate(35.939 3.877)">
            <path id="Path_120" data-name="Path 120" d="M160.509,284.808a3.061,3.061,0,0,0-1.48-.084,2.352,2.352,0,0,0-1.332.812,6.156,6.156,0,0,0-.492.828,1.7,1.7,0,0,1-.783.8,1.519,1.519,0,0,1-1.126-.054c-.33-.123-.623-.273-.909-.363a1.768,1.768,0,0,0-1.506.191,2,2,0,0,0-.73.778c-.116.23-.145.377-.169.372a.785.785,0,0,1,.073-.414,1.994,1.994,0,0,1,2.405-1.163c.314.093.613.241.925.352a1.28,1.28,0,0,0,.935.054,1.483,1.483,0,0,0,.657-.687,5.878,5.878,0,0,1,.528-.853,2.471,2.471,0,0,1,1.487-.842,2.353,2.353,0,0,1,1.146.074A.869.869,0,0,1,160.509,284.808Z" transform="translate(-151.974 -284.501)" fill="#fafafa"/>
          </g>
          <g id="Group_158" data-name="Group 158" transform="translate(31.566 10.603)">
            <path id="Path_121" data-name="Path 121" d="M150.379,299.588a2.642,2.642,0,0,0-.926-.663,1.8,1.8,0,0,0-1.186-.037,4.81,4.81,0,0,0-.664.324,1.346,1.346,0,0,1-.865.188,1.2,1.2,0,0,1-.72-.526c-.162-.222-.286-.442-.429-.621a1.346,1.346,0,0,0-1.029-.513,1.875,1.875,0,0,0-1.068.337c-.01-.009.047-.114.217-.246a1.486,1.486,0,0,1,.853-.28,1.514,1.514,0,0,1,1.219.546c.165.2.3.419.448.62a.961.961,0,0,0,.56.42c.474.083.909-.343,1.4-.485a1.92,1.92,0,0,1,1.332.1C150.241,299.078,150.405,299.593,150.379,299.588Z" transform="translate(-143.491 -297.549)" fill="#fafafa"/>
          </g>
          <g id="Group_159" data-name="Group 159" transform="translate(18.29 17.727)">
            <path id="Path_122" data-name="Path 122" d="M124.623,313.408a2.614,2.614,0,0,0-.925-.663,1.8,1.8,0,0,0-1.186-.037,4.831,4.831,0,0,0-.664.324,1.342,1.342,0,0,1-.865.188,1.2,1.2,0,0,1-.72-.526c-.161-.222-.285-.442-.428-.621a1.348,1.348,0,0,0-1.029-.513,1.874,1.874,0,0,0-1.068.337c-.011-.009.047-.114.216-.246a1.485,1.485,0,0,1,.853-.281,1.514,1.514,0,0,1,1.219.546c.165.2.3.419.448.62a.959.959,0,0,0,.561.42c.474.083.909-.343,1.4-.485a1.924,1.924,0,0,1,1.332.1C124.485,312.9,124.65,313.414,124.623,313.408Z" transform="translate(-117.736 -311.369)" fill="#fafafa"/>
          </g>
          <g id="Group_160" data-name="Group 160" transform="translate(30.58 19.4)">
            <path id="Path_123" data-name="Path 123" d="M148.586,315.142a2.639,2.639,0,0,0-1.091-.328,1.8,1.8,0,0,0-1.134.349,4.769,4.769,0,0,0-.523.521,1.345,1.345,0,0,1-.758.458,1.2,1.2,0,0,1-.851-.265c-.225-.157-.413-.326-.607-.448a1.346,1.346,0,0,0-1.14-.153,1.878,1.878,0,0,0-.9.664c-.013,0,.008-.123.126-.3a1.485,1.485,0,0,1,.715-.541,1.514,1.514,0,0,1,1.33.122c.22.132.415.3.625.442a.961.961,0,0,0,.666.216c.475-.075.749-.619,1.172-.913a1.92,1.92,0,0,1,1.291-.339A1.392,1.392,0,0,1,148.586,315.142Z" transform="translate(-141.578 -314.616)" fill="#fafafa"/>
          </g>
          <g id="Group_161" data-name="Group 161" transform="translate(26.48 25.062)">
            <path id="Path_124" data-name="Path 124" d="M140.633,326.124a2.623,2.623,0,0,0-1.091-.328,1.8,1.8,0,0,0-1.134.349,4.777,4.777,0,0,0-.523.521,1.345,1.345,0,0,1-.758.458,1.2,1.2,0,0,1-.851-.264c-.225-.158-.413-.326-.607-.448a1.346,1.346,0,0,0-1.14-.153,1.873,1.873,0,0,0-.9.665c-.013-.005.008-.124.126-.3a1.483,1.483,0,0,1,.715-.542,1.514,1.514,0,0,1,1.33.123c.22.131.415.3.625.441a.958.958,0,0,0,.666.216c.475-.075.749-.619,1.172-.912a1.917,1.917,0,0,1,1.291-.339A1.39,1.39,0,0,1,140.633,326.124Z" transform="translate(-133.624 -325.598)" fill="#fafafa"/>
          </g>
          <g id="Group_162" data-name="Group 162" transform="translate(17.923 37.683)">
            <path id="Path_125" data-name="Path 125" d="M123.932,352.04a2.62,2.62,0,0,0-.935-.65,1.8,1.8,0,0,0-1.186-.02,4.875,4.875,0,0,0-.659.333,1.34,1.34,0,0,1-.863.2,1.2,1.2,0,0,1-.727-.515c-.165-.219-.291-.438-.437-.614a1.347,1.347,0,0,0-1.037-.5,1.88,1.88,0,0,0-1.063.352c-.011-.008.046-.115.213-.248a1.483,1.483,0,0,1,.848-.293,1.513,1.513,0,0,1,1.227.529c.168.193.3.414.457.613a.957.957,0,0,0,.566.412c.475.076.9-.356,1.4-.5a1.92,1.92,0,0,1,1.333.078C123.787,351.533,123.959,352.046,123.932,352.04Z" transform="translate(-117.024 -350.083)" fill="#fafafa"/>
          </g>
          <g id="Group_163" data-name="Group 163" transform="translate(27.943 42.085)">
            <path id="Path_126" data-name="Path 126" d="M143.481,359.167a2.625,2.625,0,0,0-1.086-.343,1.8,1.8,0,0,0-1.139.333,4.89,4.89,0,0,0-.53.514,1.343,1.343,0,0,1-.764.448,1.2,1.2,0,0,1-.847-.276c-.223-.161-.409-.332-.6-.457a1.349,1.349,0,0,0-1.138-.169,1.874,1.874,0,0,0-.911.652c-.013-.005.01-.124.13-.3a1.485,1.485,0,0,1,.723-.532,1.513,1.513,0,0,1,1.328.141c.218.135.411.306.619.45a.959.959,0,0,0,.663.225c.476-.068.758-.608,1.184-.9a1.918,1.918,0,0,1,1.3-.321A1.389,1.389,0,0,1,143.481,359.167Z" transform="translate(-136.462 -358.623)" fill="#fafafa"/>
          </g>
          <g id="Group_168" data-name="Group 168">
            <g id="Group_166" data-name="Group 166">
              <g id="Group_165" data-name="Group 165">
                <path id="Path_127" data-name="Path 127" d="M83.833,276.979c.313.369,11.646,15.523,11.646,15.523l-1.6.9-11.63-14.961Z" transform="translate(-82.254 -276.979)" fill="#263238"/>
                <path id="Path_128" data-name="Path 128" d="M131.463,294.509s-10.63,18.332-11.349,18.669c-1.415.664-17.726-13.431-19.281-14.78-.214-.287-.657-.891-1.526-2.093,0,0-1.287-5.889-2.66-5.437s.752,2.992-.142,5.23-4.99-3.1-5.154-3.578l-1.056-1.38a18.127,18.127,0,0,0-1.033,4.451c.241,4.2,4.216,9.2,4.216,9.2s16.152,20.239,28.379,20.925c3.522.2,10.249-9.941,14.433-17.434,2.527-4.525,1.354-9.122-2.834-12.175Z" transform="translate(-85.648 -283.697)" fill="#ffba99"/>
                <g id="Group_164" data-name="Group 164" transform="translate(4.08 9.536)">
                  <path id="Path_129" data-name="Path 129" d="M91.71,298.585a9.676,9.676,0,0,1-1.537-3.105,17.316,17.316,0,0,1,.773,1.551C91.367,297.886,91.749,298.561,91.71,298.585Z" transform="translate(-90.169 -295.479)" fill="#eb996e"/>
                </g>
              </g>
            </g>
            <path id="Path_130" data-name="Path 130" d="M160.478,288.061c-.42.252-10.3,18.6-10.3,18.6L162.9,316.63a147.364,147.364,0,0,0,5.056-14.783,21.242,21.242,0,0,0-.439-8.461c-.951-2.636-2.384-1.979-4.531-3.523Z" transform="translate(-115.163 -282.349)" fill="#e8505b"/>
            <g id="Group_167" data-name="Group 167" transform="translate(34.841 5.182)" opacity="0.7">
              <path id="Path_131" data-name="Path 131" d="M164.5,287.562c-.008.011-.125-.07-.363-.19a2.136,2.136,0,0,0-1.119-.235,3.051,3.051,0,0,0-1.66.693,8.239,8.239,0,0,0-1.656,1.784c-.538.732-.981,1.626-1.524,2.558l-1.7,2.985-3.91,6.831-2.439,4.24-.033-.167,8.609,6.8,2.5,2.005.662.546a1.405,1.405,0,0,1,.22.2,1.463,1.463,0,0,1-.248-.165l-.689-.512L158.6,313l-8.667-6.729-.089-.069.056-.1,2.432-4.243,3.928-6.819,1.721-2.972a29.456,29.456,0,0,1,1.566-2.563,8.246,8.246,0,0,1,1.721-1.793,3.121,3.121,0,0,1,1.745-.677,2.105,2.105,0,0,1,1.148.292,1.86,1.86,0,0,1,.258.17C164.475,287.536,164.5,287.559,164.5,287.562Z" transform="translate(-149.845 -287.032)"/>
            </g>
          </g>
          <g id="Group_169" data-name="Group 169" transform="translate(38.808 20.88)">
            <path id="Path_132" data-name="Path 132" d="M164.429,319.525a2.635,2.635,0,0,0-.926-.663,1.8,1.8,0,0,0-1.186-.037,4.937,4.937,0,0,0-.664.324,1.345,1.345,0,0,1-.865.189,1.2,1.2,0,0,1-.72-.526c-.162-.222-.286-.442-.429-.621a1.349,1.349,0,0,0-1.029-.513,1.877,1.877,0,0,0-1.068.337c-.01-.009.047-.114.217-.246a1.485,1.485,0,0,1,.853-.281,1.513,1.513,0,0,1,1.219.546c.165.2.3.419.448.62a.959.959,0,0,0,.56.42c.474.083.909-.343,1.4-.484a1.92,1.92,0,0,1,1.332.1C164.29,319.016,164.455,319.531,164.429,319.525Z" transform="translate(-157.541 -317.486)" fill="#fafafa"/>
          </g>
          <g id="Group_170" data-name="Group 170" transform="translate(45.287 16.965)">
            <path id="Path_133" data-name="Path 133" d="M176.334,313.471a2.631,2.631,0,0,0-.712-.888,1.8,1.8,0,0,0-1.133-.356,4.855,4.855,0,0,0-.726.133,1.345,1.345,0,0,1-.884-.053,1.2,1.2,0,0,1-.552-.7c-.1-.257-.156-.5-.245-.713a1.349,1.349,0,0,0-.853-.772,1.874,1.874,0,0,0-1.119.037c-.008-.011.077-.1.275-.178a1.486,1.486,0,0,1,.9-.04,1.514,1.514,0,0,1,1.027.855c.106.233.172.483.264.718a.961.961,0,0,0,.427.555c.434.208.968-.085,1.482-.088a1.92,1.92,0,0,1,1.257.453A1.391,1.391,0,0,1,176.334,313.471Z" transform="translate(-170.11 -309.89)" fill="#fafafa"/>
          </g>
          <g id="Group_171" data-name="Group 171" transform="translate(45.586 9.379)">
            <path id="Path_134" data-name="Path 134" d="M176.914,298.756a2.621,2.621,0,0,0-.712-.889,1.8,1.8,0,0,0-1.132-.355,4.76,4.76,0,0,0-.726.133,1.342,1.342,0,0,1-.885-.052,1.2,1.2,0,0,1-.551-.7c-.1-.257-.156-.5-.245-.713a1.347,1.347,0,0,0-.853-.772,1.871,1.871,0,0,0-1.119.036c-.008-.011.076-.1.275-.178a1.488,1.488,0,0,1,.9-.04,1.513,1.513,0,0,1,1.026.855c.106.233.172.482.264.718a.958.958,0,0,0,.426.555c.434.208.968-.085,1.482-.088a1.92,1.92,0,0,1,1.256.453A1.387,1.387,0,0,1,176.914,298.756Z" transform="translate(-170.69 -295.174)" fill="#fafafa"/>
          </g>
          <g id="Group_172" data-name="Group 172" transform="translate(42.771 26.818)">
            <path id="Path_135" data-name="Path 135" d="M171.453,332.586a2.628,2.628,0,0,0-.712-.889,1.8,1.8,0,0,0-1.133-.355,4.873,4.873,0,0,0-.726.133,1.341,1.341,0,0,1-.884-.052,1.2,1.2,0,0,1-.552-.7c-.1-.257-.156-.5-.245-.713a1.346,1.346,0,0,0-.853-.772,1.876,1.876,0,0,0-1.119.036c-.008-.011.076-.1.275-.178a1.48,1.48,0,0,1,.9-.041,1.514,1.514,0,0,1,1.027.855c.106.233.172.483.264.718a.96.96,0,0,0,.427.556c.434.208.968-.086,1.482-.088a1.923,1.923,0,0,1,1.257.453A1.391,1.391,0,0,1,171.453,332.586Z" transform="translate(-165.229 -329.004)" fill="#fafafa"/>
          </g>
        </g>
      </g>
    </g>
  </g>
</svg>
