<?xml version="1.0" standalone="no"?>
<!DOCTYPE svg PUBLIC "-//W3C//DTD SVG 20010904//EN"
 "http://www.w3.org/TR/2001/REC-SVG-20010904/DTD/svg10.dtd">
<svg version="1.0" xmlns="http://www.w3.org/2000/svg"
 width="242.000000pt" height="131.000000pt" viewBox="0 0 242.000000 131.000000"
 preserveAspectRatio="xMidYMid meet">

<g transform="translate(0.000000,131.000000) scale(0.100000,-0.100000)"
fill="#000000" stroke="none">
<path d="M1800 1304 c-213 -18 -339 -54 -406 -118 l-44 -43 0 -489 0 -490 33
-30 c45 -43 73 -58 147 -82 84 -27 104 -30 234 -41 273 -23 550 35 632 132
l24 29 0 476 c0 454 -1 479 -19 509 -22 34 -82 73 -151 98 -93 33 -330 58
-450 49z m267 -75 c163 -22 275 -70 281 -121 4 -33 -30 -59 -113 -86 -118 -39
-176 -47 -360 -46 -150 0 -195 4 -268 22 -137 34 -206 77 -192 121 7 22 70 59
140 81 111 36 358 50 512 29z m-608 -248 c88 -45 187 -63 386 -68 167 -4 202
-2 293 16 56 12 128 33 159 46 30 14 58 25 60 25 3 0 3 -50 1 -111 -3 -109 -4
-111 -32 -134 -16 -13 -64 -35 -105 -48 -242 -80 -673 -49 -788 56 -21 19 -23
29 -23 129 0 59 2 108 5 108 3 0 23 -9 44 -19z m0 -310 c21 -11 76 -30 122
-42 74 -21 108 -23 294 -24 228 0 313 12 424 61 29 13 55 24 57 24 2 0 4 -42
4 -94 0 -86 -2 -97 -25 -124 -100 -119 -606 -144 -845 -41 -73 31 -80 46 -80
161 0 54 2 98 5 98 3 0 23 -9 44 -19z m139 -342 c113 -26 341 -36 453 -20 97
14 218 45 260 66 16 9 32 16 35 18 3 1 6 -45 6 -103 -1 -100 -2 -106 -26 -127
-37 -31 -124 -61 -234 -79 -132 -22 -385 -14 -494 14 -89 24 -173 64 -182 87
-3 9 -6 61 -6 116 l0 99 51 -25 c28 -15 90 -35 137 -46z"/>
<path d="M20 1150 c-19 -19 -20 -33 -20 -418 0 -457 -5 -432 88 -432 l52 0 0
-60 c0 -105 -17 -100 370 -100 317 0 331 1 350 20 18 18 20 33 20 175 l0 155
75 0 74 0 3 -77 3 -78 127 125 128 125 -130 123 -130 124 0 -81 0 -81 -75 0
-75 0 0 125 c0 151 -8 165 -90 165 l-50 0 0 85 c0 134 26 125 -370 125 -317 0
-331 -1 -350 -20z m668 -417 l-3 -388 -315 0 -315 0 -3 388 -2 387 320 0 320
0 -2 -387z m142 -183 l0 -360 -321 0 -320 0 3 53 3 52 254 3 c220 2 257 5 273
19 17 15 18 39 18 305 l0 288 45 0 45 0 0 -360z"/>
<path d="M153 955 c-3 -9 -1 -21 4 -26 5 -5 95 -8 219 -7 201 3 209 4 209 23
0 19 -8 20 -213 23 -186 2 -213 0 -219 -13z"/>
<path d="M154 785 c-3 -8 -3 -19 1 -25 8 -13 404 -14 424 -1 8 5 11 16 8 25
-6 14 -33 16 -217 16 -175 0 -212 -2 -216 -15z"/>
<path d="M153 615 c-11 -30 12 -36 123 -33 101 3 109 4 109 23 0 19 -8 20
-113 23 -95 2 -113 0 -119 -13z"/>
</g>
</svg>
